<?xml version="1.0" encoding="UTF-8" standalone="no"?>
<!-- Created with Inkscape (http://www.inkscape.org/) -->

<svg
   xmlns:dc="http://purl.org/dc/elements/1.1/"
   xmlns:cc="http://creativecommons.org/ns#"
   xmlns:rdf="http://www.w3.org/1999/02/22-rdf-syntax-ns#"
   xmlns:svg="http://www.w3.org/2000/svg"
   xmlns="http://www.w3.org/2000/svg"
   xmlns:sodipodi="http://sodipodi.sourceforge.net/DTD/sodipodi-0.dtd"
   xmlns:inkscape="http://www.inkscape.org/namespaces/inkscape"
   width="16"
   height="16"
   id="svg2"
   version="1.1"
   inkscape:version="0.91 r13725"
   sodipodi:docname="Slide Social Icon.rend.svg"
   inkscape:export-filename="C:\Users\Kyli\Dropbox\Libraries\Images\From Me\Design\Slide Social\Slide Social Icon (4k).png"
   inkscape:export-xdpi="23040"
   inkscape:export-ydpi="23040">
  <defs
     id="defs4">
    <linearGradient
       id="linearGradient3773">
      <stop
         style="stop-color:#607d8b;stop-opacity:0;"
         offset="0"
         id="stop3775" />
      <stop
         id="stop3781"
         offset="0.1388889"
         style="stop-color:#607d8b;stop-opacity:1;" />
      <stop
         style="stop-color:#607d8b;stop-opacity:1;"
         offset="1"
         id="stop3777" />
    </linearGradient>
  </defs>
  <sodipodi:namedview
     id="base"
     pagecolor="#ffffff"
     bordercolor="#666666"
     borderopacity="1.0"
     inkscape:pageopacity="0.0"
     inkscape:pageshadow="2"
     inkscape:zoom="51.99173"
     inkscape:cx="6.3085101"
     inkscape:cy="9.1533498"
     inkscape:document-units="px"
     inkscape:current-layer="layer1"
     showgrid="true"
     inkscape:window-width="1920"
     inkscape:window-height="1017"
     inkscape:window-x="-8"
     inkscape:window-y="-8"
     inkscape:window-maximized="1"
     gridtolerance="10">
    <inkscape:grid
       type="xygrid"
       id="grid2985"
       empspacing="4"
       visible="true"
       enabled="true"
       snapvisiblegridlinesonly="true"
       color="#ff0000"
       opacity="0.1254902" />
    <inkscape:grid
       type="axonomgrid"
       id="grid2989"
       units="mm"
       empspacing="4"
       visible="true"
       enabled="true"
       snapvisiblegridlinesonly="true"
       gridanglex="45"
       gridanglez="45"
       spacingy="1.1289mm"
       color="#0000ff"
       opacity="0.0627451"
       empcolor="#00ff00"
       empopacity="0.50196078" />
  </sodipodi:namedview>
  <metadata
     id="metadata7">
    <rdf:RDF>
      <cc:Work
         rdf:about="">
        <dc:format>image/svg+xml</dc:format>
        <dc:type
           rdf:resource="http://purl.org/dc/dcmitype/StillImage" />
        <dc:title></dc:title>
      </cc:Work>
    </rdf:RDF>
  </metadata>
  <g
     inkscape:label="Layer 1"
     inkscape:groupmode="layer"
     id="layer1">
    <rect
       style="fill:#607d8b;fill-opacity:1;stroke:none"
       id="rect2999"
       width="8.0000782"
       height="14"
       x="4.0000396"
       y="1" />
    <path
       style="fill:none;stroke:#ffffff;stroke-width:0.22912344;stroke-linecap:butt;stroke-linejoin:miter;stroke-miterlimit:4;stroke-opacity:0.29803922;stroke-dasharray:none"
       d="m 12.499947,5.6665747 2.66e-4,4.6667583"
       id="path3769"
       inkscape:connector-curvature="0" />
    <g
       transform="scale(0.98195752,1.018374)"
       style="font-style:normal;font-variant:normal;font-weight:normal;font-stretch:normal;font-size:8px;line-height:50%;font-family:'Grand Hotel';-inkscape-font-specification:'Grand Hotel';text-align:center;letter-spacing:0px;word-spacing:0px;text-anchor:middle;fill:#000000;fill-opacity:1;stroke:none"
       id="text2995">
      <path
         d="m 7.5589986,9.2238835 q -0.2570801,0 -0.4271485,-0.059326 Q 6.9617818,9.1091862 6.8629048,9.0379948 6.7640278,8.9668034 6.7244771,8.9035221 q -0.039551,-0.067236 -0.039551,-0.087012 0,-0.071191 0.031641,-0.150293 0.031641,-0.083057 0.079102,-0.150293 0.047461,-0.071191 0.102832,-0.1186523 0.055371,-0.047461 0.098877,-0.047461 0.055371,0 0.090967,0.071191 0.00791,0.00791 0.039551,0.039551 0.031641,0.031641 0.087012,0.067236 0.059326,0.031641 0.1423828,0.059326 0.087012,0.027686 0.201709,0.027686 0.2491699,0 0.407373,-0.150293 0.1582032,-0.154248 0.1582032,-0.4152832 0,-0.1819336 -0.087012,-0.3243164 Q 7.9545064,7.582526 7.8160787,7.4599185 7.6776509,7.3373111 7.4996724,7.2226138 7.3216939,7.1039615 7.1358052,6.977399 6.9499165,6.8508365 6.771938,6.7044986 6.5939595,6.5581607 6.4555317,6.3683169 6.317104,6.1784732 6.2300923,5.9411685 6.1470356,5.6999087 6.1470356,5.3914126 q 0,-0.2649903 0.090967,-0.5339356 0.090967,-0.2689453 0.24917,-0.5102051 Q 6.6493306,4.102057 6.8668599,3.8924379 7.0843892,3.6788637 7.3375142,3.5246156 7.5906392,3.3664125 7.8635396,3.2794008 q 0.2768555,-0.090967 0.553711,-0.090967 0.2373047,0 0.4271484,0.075146 0.1898438,0.075147 0.3203614,0.2135743 0.1305176,0.1344726 0.201709,0.3282715 0.071191,0.1898437 0.071191,0.4271484 0,0.2254395 -0.079102,0.4429688 Q 9.2794576,4.8930727 9.1489401,5.0868715 9.0184225,5.2806704 8.8523092,5.4467837 8.690151,5.6089419 8.5161275,5.7315493 8.3460592,5.8502017 8.183901,5.917438 q -0.1621583,0.067236 -0.2847657,0.067236 -0.1067871,0 -0.1937988,-0.047461 Q 7.6222798,5.8857974 7.5629537,5.8146059 7.5075826,5.7394595 7.4759419,5.6603579 7.4443013,5.5773012 7.4443013,5.51402 q 0,-0.051416 0.011865,-0.067236 0.01582,-0.01582 0.039551,-0.011865 0.027686,0 0.067236,0.011865 0.039551,0.00791 0.090967,0.00791 0.1661133,0 0.3678222,-0.1146972 Q 8.2234517,5.2252993 8.4014303,5.0473208 8.5794088,4.8693422 8.6980611,4.655768 8.8206686,4.4421938 8.8206686,4.2404848 q 0,-0.2056641 -0.1028321,-0.3243164 Q 8.6189596,3.797516 8.3776998,3.797516 q -0.150293,0 -0.3282715,0.059326 Q 7.8754048,3.9122133 7.6974263,4.0150453 7.5194478,4.1178774 7.3533345,4.2642152 7.1872212,4.4105531 7.0606587,4.5885317 6.9340962,4.7625551 6.8549946,4.9682192 q -0.075146,0.201709 -0.075146,0.4231934 0,0.2333496 0.083057,0.4192383 0.087012,0.1819336 0.2254395,0.3322265 0.1423828,0.150293 0.3203613,0.2768555 0.1779785,0.1265625 0.3638672,0.253125 0.1858887,0.1226075 0.3638672,0.2570801 0.1779785,0.1305176 0.3164063,0.2926758 0.1423828,0.1582032 0.2254394,0.3559571 0.087012,0.1937988 0.087012,0.4469238 0,0.2452149 -0.094922,0.4666993 Q 8.5794088,8.7097233 8.4172506,8.8718815 8.2550924,9.0340397 8.033608,9.1289616 7.8121236,9.2238835 7.5589986,9.2238835 Z"
         style="font-style:normal;font-variant:normal;font-weight:normal;font-stretch:normal;font-size:8.10000038px;line-height:50%;font-family:'Grand Hotel';-inkscape-font-specification:'Grand Hotel';fill:#ffffff"
         id="path4145" />
      <path
         d="m 8.4528463,12.273884 q -0.2570801,0 -0.4271485,-0.05933 -0.1700683,-0.05537 -0.2689453,-0.126562 -0.098877,-0.07119 -0.1384277,-0.134473 -0.039551,-0.06724 -0.039551,-0.08701 0,-0.07119 0.031641,-0.150293 0.031641,-0.08306 0.079102,-0.150293 0.047461,-0.07119 0.102832,-0.118653 0.055371,-0.04746 0.098877,-0.04746 0.055371,0 0.090967,0.07119 0.00791,0.0079 0.039551,0.03955 0.031641,0.03164 0.087012,0.06724 0.059326,0.03164 0.1423828,0.05933 0.087012,0.02769 0.201709,0.02769 0.2491699,0 0.4073731,-0.150293 0.1582031,-0.154248 0.1582031,-0.415284 0,-0.181933 -0.087012,-0.324316 Q 8.8483541,10.632526 8.7099264,10.509919 8.5714986,10.387311 8.3935201,10.272614 8.2155416,10.153962 8.0296529,10.027399 7.8437642,9.9008367 7.6657857,9.7544988 7.4878072,9.6081609 7.3493794,9.4183171 7.2109517,9.2284733 7.12394,8.9911686 7.0408833,8.7499089 7.0408833,8.4414128 q 0,-0.2649903 0.090967,-0.5339356 0.090967,-0.2689453 0.24917,-0.5102051 0.1621582,-0.2452149 0.3796875,-0.454834 0.2175293,-0.2135742 0.4706543,-0.3678223 0.253125,-0.1582031 0.5260254,-0.2452149 0.2768555,-0.090967 0.553711,-0.090967 0.2373047,0 0.4271484,0.075146 0.1898438,0.075146 0.3203613,0.2135743 0.130518,0.1344726 0.201709,0.3282715 0.07119,0.1898437 0.07119,0.4271484 0,0.2254395 -0.0791,0.4429688 -0.0791,0.2175293 -0.209619,0.4113281 Q 9.9122702,8.3306706 9.7461569,8.4967839 9.5839987,8.6589421 9.4099752,8.7815495 9.2399069,8.9002018 9.0777487,8.9674382 8.9155905,9.0346745 8.792983,9.0346745 q -0.1067871,0 -0.1937988,-0.047461 Q 8.5161275,8.9357975 8.4568014,8.8646061 8.4014303,8.7894597 8.3697896,8.7103581 8.338149,8.6273014 8.338149,8.5640202 q 0,-0.051416 0.011865,-0.067236 0.01582,-0.01582 0.039551,-0.011865 0.027686,0 0.067236,0.011865 0.039551,0.00791 0.090967,0.00791 0.1661133,0 0.3678223,-0.1146973 Q 9.1172994,8.2752995 9.295278,8.0973209 9.4732565,7.9193424 9.5919088,7.7057682 9.7145163,7.492194 9.7145163,7.290485 q 0,-0.2056641 -0.1028321,-0.3243165 -0.098877,-0.1186523 -0.3401367,-0.1186523 -0.150293,0 -0.3282715,0.059326 Q 8.7692526,6.9622135 8.591274,7.0650455 8.4132955,7.1678775 8.2471822,7.3142154 8.0810689,7.4605533 7.9545064,7.6385319 7.8279439,7.8125553 7.7488424,8.0182194 q -0.075146,0.201709 -0.075146,0.4231934 0,0.2333496 0.083057,0.4192383 0.087012,0.1819336 0.2254395,0.3322265 0.1423828,0.150293 0.3203613,0.2768555 0.1779785,0.1265625 0.3638672,0.253125 0.1858887,0.1226075 0.3638672,0.2570801 0.1779785,0.1305178 0.3164063,0.2926758 0.1423828,0.158203 0.2254395,0.355957 0.087012,0.193799 0.087012,0.446924 0,0.245215 -0.094922,0.466699 -0.090967,0.217529 -0.253125,0.379688 -0.1621582,0.162158 -0.3836426,0.25708 -0.2214844,0.09492 -0.4746094,0.09492 z"
         style="font-style:normal;font-variant:normal;font-weight:normal;font-stretch:normal;font-size:8.10000038px;line-height:50%;font-family:'Grand Hotel';-inkscape-font-specification:'Grand Hotel';fill:#ffffff"
         id="path4147" />
    </g>
  </g>
</svg>
