<?xml version="1.0" encoding="UTF-8" standalone="no"?>
<!-- Created with Inkscape (http://www.inkscape.org/) -->
<svg xmlns:rdf="http://www.w3.org/1999/02/22-rdf-syntax-ns#" xmlns="http://www.w3.org/2000/svg" height="16" width="16" version="1.1" xmlns:cc="http://creativecommons.org/ns#" xmlns:dc="http://purl.org/dc/elements/1.1/">
	<metadata>
		<rdf:RDF>
			<cc:Work rdf:about="">
				<dc:format>image/svg+xml</dc:format>
				<dc:type rdf:resource="http://purl.org/dc/dcmitype/StillImage"/>
				<dc:title>Slide Social Buttons icon</dc:title>
			</cc:Work>
		</rdf:RDF>
	</metadata>
	<rect height="14" width="8" y="1" x="4" fill="#607d8b"/>
	<path d="m12.5 5.6667 0 4.6667" stroke-opacity=".29804" stroke="#fff" stroke-width=".22912" fill="none"/>
	<g fill="#fff" transform="scale(.98196 1.0184)">
		<path d="m7.559 9.2239q-0.25708 0-0.42715-0.059326-0.17-0.0554-0.2689-0.1266t-0.1384-0.1345q-0.039551-0.067236-0.039551-0.087012 0-0.071191 0.031641-0.15029 0.031641-0.083057 0.079102-0.15029 0.047461-0.071191 0.10283-0.11865 0.055371-0.047461 0.098877-0.047461 0.055371 0 0.090967 0.071191 0.00791 0.00791 0.039551 0.039551t0.087012 0.067236q0.059326 0.031641 0.14238 0.059326 0.087012 0.027686 0.20171 0.027686 0.24917 0 0.40737-0.15029 0.1582-0.15425 0.1582-0.41528 0-0.18193-0.087012-0.32432-0.0831-0.1424-0.2215-0.265t-0.3164-0.2373q-0.178-0.1186-0.3639-0.2452t-0.3639-0.2729q-0.1779-0.1463-0.3164-0.3362-0.1384-0.1898-0.2254-0.4271-0.0831-0.2413-0.0831-0.5498 0-0.26499 0.090967-0.53394t0.24917-0.51021q0.1622-0.2451 0.3798-0.4548 0.2175-0.2135 0.4706-0.3678 0.2531-0.1582 0.526-0.2452 0.27686-0.090967 0.55371-0.090967 0.2373 0 0.42715 0.075146 0.18984 0.075147 0.32036 0.21357 0.13052 0.13447 0.20171 0.32827 0.071191 0.18984 0.071191 0.42715 0 0.22544-0.079102 0.44297-0.079 0.2176-0.2096 0.4114-0.1305 0.1938-0.2966 0.3599-0.1621 0.1621-0.3362 0.2847-0.17 0.1187-0.3322 0.1859-0.16216 0.067236-0.28477 0.067236-0.10679 0-0.1938-0.047461-0.083-0.0514-0.1423-0.1226-0.0554-0.0751-0.0871-0.1542-0.0316-0.0831-0.0316-0.1464 0-0.051416 0.011865-0.067236 0.01582-0.01582 0.039551-0.011865 0.027686 0 0.067236 0.011865 0.039551 0.00791 0.090967 0.00791 0.16611 0 0.36782-0.1147 0.2018-0.1147 0.3797-0.2927 0.178-0.178 0.2967-0.3915 0.1226-0.2136 0.1226-0.4153 0-0.20566-0.10283-0.32432-0.0989-0.1187-0.3402-0.1187-0.15029 0-0.32827 0.059326-0.174 0.0554-0.352 0.1582-0.178 0.1029-0.3441 0.2492-0.1661 0.1464-0.2926 0.3243-0.1266 0.1741-0.2057 0.3797-0.075146 0.20171-0.075146 0.42319 0 0.23335 0.083057 0.41924 0.087012 0.18193 0.22544 0.33223 0.14238 0.15029 0.32036 0.27686 0.17798 0.12656 0.36387 0.25312 0.18589 0.12261 0.36387 0.25708 0.17798 0.13052 0.31641 0.29268 0.14238 0.1582 0.22544 0.35596 0.087012 0.1938 0.087012 0.44692 0 0.24521-0.094922 0.4667-0.0909 0.2174-0.253 0.3796-0.1622 0.1621-0.3837 0.2571-0.2215 0.0949-0.4746 0.0949z"/>
		<path d="m8.4528 12.274q-0.25708 0-0.42715-0.05933-0.17007-0.05537-0.26895-0.12656-0.098877-0.07119-0.13843-0.13447-0.039551-0.06724-0.039551-0.08701 0-0.07119 0.031641-0.15029 0.031641-0.08306 0.079102-0.15029 0.047461-0.07119 0.10283-0.11865 0.055371-0.04746 0.098877-0.04746 0.055371 0 0.090967 0.07119 0.00791 0.0079 0.039551 0.03955 0.031641 0.03164 0.087012 0.06724 0.059326 0.03164 0.14238 0.05933 0.087012 0.02769 0.20171 0.02769 0.24917 0 0.40737-0.15029 0.1582-0.15425 0.1582-0.41528 0-0.18193-0.087012-0.32432-0.083-0.142-0.2215-0.265-0.1384-0.123-0.3164-0.237-0.178-0.119-0.3638-0.246-0.1859-0.1262-0.3639-0.2725t-0.3164-0.3362q-0.1384-0.1898-0.2255-0.4271-0.083-0.2413-0.083-0.5498 0-0.26499 0.090967-0.53394t0.24917-0.51021q0.16216-0.24521 0.37969-0.45483 0.21753-0.21357 0.47065-0.36782 0.25312-0.1582 0.52603-0.24521 0.27686-0.090967 0.55371-0.090967 0.2373 0 0.42715 0.075146 0.18984 0.075146 0.32036 0.21357 0.13052 0.13447 0.20171 0.32827 0.07119 0.18984 0.07119 0.42715 0 0.22544-0.0791 0.44297t-0.20962 0.41133q-0.1307 0.1938-0.2968 0.3599-0.1622 0.1621-0.3362 0.2847-0.1701 0.1187-0.3323 0.1859-0.1621 0.0673-0.2847 0.0673-0.10679 0-0.1938-0.047461-0.0831-0.0514-0.1424-0.1226-0.0554-0.0751-0.087-0.1542-0.0317-0.0831-0.0317-0.1464 0-0.051416 0.011865-0.067236 0.01582-0.01582 0.039551-0.011865 0.027686 0 0.067236 0.011865 0.039551 0.00791 0.090967 0.00791 0.16611 0 0.36782-0.1147 0.2018-0.1147 0.3798-0.2927t0.2966-0.3915q0.1226-0.2136 0.1226-0.4153 0-0.20566-0.10283-0.32432-0.098877-0.11865-0.34014-0.11865-0.15029 0-0.32827 0.059326-0.174 0.0553-0.352 0.1581-0.178 0.1029-0.3441 0.2492-0.1661 0.1464-0.2927 0.3243-0.1266 0.1741-0.2057 0.3797-0.075146 0.20171-0.075146 0.42319 0 0.23335 0.083057 0.41924 0.087012 0.18193 0.22544 0.33223 0.14238 0.15029 0.32036 0.27686 0.17798 0.12656 0.36387 0.25312 0.18589 0.12261 0.36387 0.25708 0.17798 0.13052 0.31641 0.29268 0.14238 0.1582 0.22544 0.35596 0.087012 0.1938 0.087012 0.44692 0 0.24522-0.094922 0.4667-0.090967 0.21753-0.25312 0.37969-0.16216 0.16216-0.38364 0.25708t-0.47461 0.09492z"/>
	</g>
</svg>
